<svg width="685" height="289" viewBox="0 0 685 289" fill="none" xmlns="http://www.w3.org/2000/svg">
<path d="M251.962 136.286C251.569 136.503 251.074 136.361 250.856 135.968C250.639 135.575 250.781 135.08 251.174 134.862L251.962 136.286ZM342.074 94.2934C346.429 92.0367 353.9 90.5418 361.837 91.509C369.797 92.4791 378.308 95.9361 384.653 103.683C387.656 107.349 389.683 110.971 391.789 114.031C393.918 117.123 396.21 119.786 399.883 121.856C402.231 123.18 406.01 126.343 409.335 129.178C411.016 130.611 412.594 131.971 413.859 133.014C414.491 133.536 415.035 133.97 415.468 134.29C415.933 134.633 416.186 134.78 416.268 134.81C416.69 134.965 416.907 135.432 416.752 135.854C416.598 136.276 416.13 136.492 415.708 136.338C415.373 136.215 414.938 135.921 414.502 135.599C414.034 135.253 413.463 134.797 412.823 134.27C411.545 133.215 409.949 131.839 408.279 130.415C404.901 127.536 401.262 124.501 399.084 123.274C395.109 121.034 392.649 118.149 390.449 114.954C388.227 111.727 386.348 108.321 383.394 104.714C377.371 97.3602 369.282 94.0557 361.64 93.1244C353.976 92.1904 346.843 93.6544 342.822 95.7377C341.754 96.2912 339.827 97.3582 337.362 98.6995C334.905 100.036 331.933 101.635 328.804 103.236C322.573 106.427 315.632 109.674 310.889 110.855C305.353 112.233 294.162 115.209 289.222 117.381C289.205 117.388 289.187 117.399 289.165 117.418L267.138 136.193C266.796 136.485 266.283 136.444 265.991 136.102C265.7 135.76 265.74 135.246 266.082 134.955L288.109 116.18C288.244 116.065 288.395 115.967 288.567 115.891C293.66 113.653 304.999 110.644 310.496 109.276C315.031 108.147 321.814 104.987 328.063 101.788C331.174 100.195 334.132 98.6039 336.584 97.27C339.027 95.941 340.987 94.8568 342.074 94.2934ZM349.046 101.112C352.035 100.885 355.506 101.174 358.9 101.838C362.296 102.502 365.654 103.549 368.417 104.863C371.146 106.161 373.427 107.782 374.494 109.664C376.376 112.984 379.32 118.215 383.496 123.155C387.673 128.099 393.036 132.694 399.728 134.798C400.156 134.933 400.394 135.39 400.26 135.818C400.125 136.247 399.668 136.485 399.24 136.35C392.142 134.118 386.537 129.275 382.253 124.206C377.968 119.135 374.957 113.78 373.079 110.467C372.266 109.033 370.368 107.593 367.718 106.332C365.101 105.088 361.878 104.078 358.588 103.435C355.297 102.791 351.978 102.521 349.169 102.734C346.32 102.949 344.165 103.648 343.019 104.778C341.828 105.953 339.739 107.169 337.237 108.359C334.709 109.561 331.671 110.777 328.509 111.927C322.184 114.228 315.309 116.288 310.905 117.483L310.857 117.496L310.808 117.503C292.524 120.118 282.389 130.99 279.649 135.967C279.433 136.36 278.938 136.504 278.544 136.287C278.151 136.07 278.007 135.575 278.224 135.182C281.192 129.79 291.737 118.606 310.522 115.9C314.895 114.713 321.701 112.672 327.953 110.398C331.09 109.257 334.075 108.061 336.538 106.89C339.026 105.706 340.896 104.587 341.877 103.619C343.448 102.07 346.098 101.335 349.046 101.112ZM367.587 67.5684C376.042 67.1447 385.932 68.8164 392.606 77.4267C393.856 79.04 395.24 81.5467 396.84 84.4456C398.455 87.3718 400.321 90.7564 402.565 94.2203C407.057 101.154 413.021 108.331 421.377 112.659C426.082 115.097 433.401 118.827 439.688 122.871C442.83 124.892 445.744 127.01 447.955 129.103C450.136 131.168 451.762 133.328 452.099 135.446C452.17 135.89 451.868 136.307 451.424 136.378C450.981 136.448 450.563 136.146 450.492 135.702C450.245 134.148 448.971 132.307 446.836 130.285C444.731 128.292 441.913 126.237 438.807 124.24C432.598 120.246 425.355 116.553 420.628 114.104C411.908 109.587 405.756 102.138 401.2 95.1053C398.92 91.5863 397.028 88.153 395.415 85.2316C393.788 82.2832 392.474 79.9125 391.32 78.4235C385.12 70.4255 375.893 68.7811 367.668 69.1934C363.563 69.3991 359.748 70.1165 356.749 70.7876C355.245 71.1243 353.965 71.4448 352.932 71.6885C352.421 71.8091 351.968 71.9111 351.589 71.9835C351.223 72.0535 350.875 72.1064 350.596 72.1064C350.564 72.1065 350.448 72.1195 350.216 72.1928C349.997 72.2619 349.721 72.3695 349.387 72.5169C348.721 72.8114 347.875 73.2436 346.885 73.7859C344.906 74.8697 342.408 76.3612 339.712 77.9892C334.346 81.2305 328.193 85.0196 324.004 87.0732C318.698 89.6743 312.215 91.8616 305.981 94.0783C299.709 96.3083 293.693 98.5667 289.18 101.322C285.707 103.442 279.441 105.369 272.03 113.915C270.451 115.735 267.856 117.757 264.765 119.819C261.66 121.891 258 124.038 254.248 126.102C246.744 130.232 238.828 134.054 234.164 136.307C233.759 136.502 233.273 136.333 233.077 135.928C232.882 135.523 233.051 135.037 233.456 134.842C238.123 132.588 246.002 128.783 253.463 124.677C257.194 122.624 260.81 120.502 263.862 118.466C266.928 116.421 269.371 114.497 270.801 112.849C278.432 104.049 285.119 101.895 288.332 99.9331C293.011 97.0763 299.187 94.7674 305.436 92.5455C311.722 90.3104 318.088 88.1615 323.287 85.6124C327.394 83.5993 333.462 79.8632 338.871 76.5962C341.563 74.9702 344.09 73.4617 346.103 72.3591C347.109 71.8082 348.001 71.3506 348.73 71.0286C349.094 70.8677 349.43 70.7351 349.727 70.6414C350.01 70.552 350.314 70.4794 350.596 70.4793C350.709 70.4793 350.927 70.4537 351.283 70.3856C351.626 70.32 352.051 70.2246 352.558 70.1049C353.562 69.868 354.879 69.5387 356.394 69.1997C359.434 68.5193 363.351 67.7807 367.587 67.5684ZM350.596 109.252C351.337 109.252 352.889 109.529 354.763 110.005C356.671 110.49 359.001 111.203 361.334 112.122C363.663 113.039 366.021 114.171 367.97 115.499C369.902 116.817 371.527 118.391 372.246 120.228C373.322 122.974 375.894 125.82 378.726 128.44C380.13 129.739 381.57 130.958 382.882 132.062C384.185 133.158 385.379 134.155 386.254 134.984C386.58 135.292 386.595 135.807 386.286 136.133C385.977 136.46 385.462 136.474 385.136 136.165C384.304 135.378 383.156 134.419 381.835 133.307C380.523 132.203 379.056 130.962 377.621 129.635C374.778 127.004 371.953 123.942 370.731 120.821C370.188 119.436 368.883 118.091 367.053 116.844C365.24 115.608 363.003 114.528 360.738 113.636C358.477 112.745 356.213 112.052 354.363 111.582C352.48 111.104 351.109 110.879 350.596 110.879C350.555 110.879 350.422 110.895 350.159 110.969C349.91 111.039 349.596 111.146 349.215 111.29C348.455 111.578 347.478 111.995 346.323 112.51C345.171 113.024 343.854 113.628 342.415 114.288C340.978 114.947 339.422 115.66 337.798 116.387C331.328 119.281 323.659 122.454 317.924 123.368C310.377 124.572 304.012 126.716 299.141 129.086C294.248 131.468 290.931 134.043 289.405 136.064C289.135 136.423 288.624 136.494 288.266 136.223C287.907 135.953 287.836 135.443 288.107 135.084C289.854 132.769 293.433 130.055 298.429 127.623C303.449 125.18 309.968 122.989 317.668 121.761C323.158 120.886 330.635 117.809 337.133 114.901C338.75 114.178 340.3 113.468 341.737 112.809C343.173 112.151 344.498 111.542 345.661 111.024C346.821 110.507 347.833 110.074 348.64 109.769C349.042 109.616 349.406 109.491 349.717 109.403C350.013 109.32 350.323 109.252 350.596 109.252ZM350.574 81.6925C354.886 80.8803 361.811 79.9604 368.416 80.191C371.718 80.3063 374.973 80.71 377.794 81.5765C380.608 82.4412 383.06 83.7887 384.665 85.8418C387.142 89.0122 390.569 94.3154 393.589 99.1259C396.632 103.973 399.247 108.296 400.153 109.602C400.389 109.943 400.851 110.444 401.548 111.105C402.233 111.755 403.106 112.525 404.13 113.396C406.18 115.14 408.794 117.259 411.648 119.609C417.337 124.292 423.96 129.874 428.704 135.023C429.008 135.353 428.988 135.868 428.657 136.173C428.327 136.477 427.812 136.456 427.507 136.126C422.85 131.071 416.311 125.556 410.614 120.865C407.775 118.528 405.139 116.39 403.076 114.635C402.044 113.757 401.145 112.965 400.428 112.286C399.723 111.616 399.154 111.018 398.815 110.529C397.882 109.183 395.215 104.776 392.211 99.9908C389.184 95.1691 385.8 89.9376 383.382 86.8439C382.06 85.1516 379.956 83.9435 377.315 83.1321C374.68 82.3226 371.581 81.9295 368.359 81.817C361.918 81.5921 355.12 82.4918 350.875 83.2915C350.857 83.2949 350.84 83.3004 350.817 83.3111L323.966 95.7637L323.944 95.7727C317.496 98.3121 303.954 103.738 300.076 104.974C298.275 105.547 295.523 107.144 292.779 108.97C290.06 110.78 287.441 112.752 285.933 114.007C279.689 119.205 271.188 124.778 264.269 129.04C260.805 131.174 257.73 132.985 255.52 134.262C254.415 134.901 253.526 135.406 252.914 135.752C252.607 135.925 252.37 136.058 252.209 136.148C252.128 136.193 252.067 136.227 252.025 136.251C252.005 136.262 251.989 136.271 251.978 136.277C251.973 136.28 251.969 136.282 251.966 136.283C251.965 136.284 251.963 136.285 251.963 136.285L251.962 136.286L251.568 135.574C251.189 134.89 251.174 134.863 251.174 134.862L251.175 134.862C251.175 134.862 251.176 134.861 251.177 134.86C251.18 134.859 251.184 134.857 251.189 134.854C251.199 134.849 251.214 134.84 251.235 134.829C251.275 134.806 251.336 134.773 251.415 134.728C251.574 134.639 251.81 134.507 252.114 134.335C252.722 133.992 253.606 133.489 254.706 132.853C256.906 131.582 259.967 129.779 263.415 127.655C270.32 123.401 278.741 117.877 284.893 112.756C286.45 111.46 289.116 109.453 291.878 107.616C294.615 105.794 297.539 104.074 299.582 103.423C303.388 102.211 316.815 96.8311 323.328 94.2658L350.132 81.835C350.271 81.7708 350.416 81.7222 350.574 81.6925Z" fill="#435698"/>
<path d="M565.642 215.306C565.341 215.306 565.04 215.231 564.739 215.081C564.438 214.98 564.212 214.805 564.062 214.554L547.132 176.255H546.906L547.057 206.127C547.107 207.08 547.182 208.008 547.282 208.911C547.433 209.763 547.834 210.491 548.486 211.093C549.138 211.645 550.242 211.92 551.797 211.92C552.349 211.92 552.8 211.971 553.151 212.071C553.503 212.171 553.703 212.648 553.753 213.501C553.753 213.902 553.628 214.278 553.377 214.629C553.176 214.98 552.85 215.156 552.399 215.156C551.346 215.106 550.493 215.056 549.841 215.005C549.188 215.005 548.561 214.98 547.96 214.93C547.358 214.93 546.555 214.93 545.552 214.93C544.047 214.93 542.818 214.93 541.865 214.93C540.962 214.98 539.708 215.056 538.103 215.156C537.601 215.156 537.25 214.98 537.049 214.629C536.848 214.278 536.748 213.902 536.748 213.501C536.798 212.648 536.999 212.171 537.35 212.071C537.701 211.971 538.128 211.92 538.629 211.92C540.234 211.92 541.338 211.645 541.94 211.093C542.592 210.491 542.993 209.763 543.144 208.911C543.294 208.008 543.37 207.08 543.37 206.127L543.52 176.255C543.52 174.65 543.345 173.471 542.993 172.718C542.642 171.916 542.09 171.364 541.338 171.063C540.586 170.712 539.633 170.436 538.479 170.235C537.776 170.085 537.275 169.959 536.974 169.859C536.723 169.759 536.598 169.307 536.598 168.505C536.598 167.652 536.899 167.2 537.501 167.15C538.103 167.05 538.805 167 539.607 167C542.065 167 544.222 167.2 546.078 167.602C547.985 168.003 549.64 168.781 551.045 169.934C552.449 171.038 553.603 172.718 554.506 174.976L567.448 204.02H567.673L582.497 167.451H586.785C588.29 167.451 589.745 167.426 591.15 167.376C592.604 167.326 594.134 167.276 595.739 167.225C596.241 167.225 596.592 167.401 596.793 167.752C596.994 168.103 597.094 168.48 597.094 168.881C597.044 169.734 596.843 170.21 596.492 170.31C596.141 170.411 595.714 170.461 595.213 170.461C593.658 170.461 592.529 170.762 591.827 171.364C591.175 171.916 590.773 172.643 590.623 173.546C590.472 174.399 590.372 175.302 590.322 176.255V206.127C590.372 207.08 590.472 208.008 590.623 208.911C590.773 209.763 591.175 210.491 591.827 211.093C592.529 211.645 593.658 211.92 595.213 211.92C595.714 211.92 596.141 211.971 596.492 212.071C596.843 212.171 597.044 212.648 597.094 213.501C597.094 213.902 596.994 214.278 596.793 214.629C596.592 214.98 596.241 215.156 595.739 215.156C594.134 215.056 592.604 214.98 591.15 214.93C589.695 214.93 588.215 214.93 586.71 214.93C583.801 214.93 580.716 215.005 577.455 215.156C576.954 215.156 576.602 214.98 576.402 214.629C576.201 214.278 576.101 213.902 576.101 213.501C576.151 212.648 576.352 212.171 576.703 212.071C577.054 211.971 577.48 211.92 577.982 211.92C579.587 211.92 580.716 211.645 581.368 211.093C582.02 210.491 582.421 209.763 582.572 208.911C582.772 208.008 582.873 207.08 582.873 206.127V176.255H582.647L567.147 214.554C567.046 214.805 566.846 214.98 566.545 215.081C566.244 215.231 565.943 215.306 565.642 215.306Z" fill="#435698"/>
<path d="M507.912 216.435C503.899 216.435 500.538 215.733 497.829 214.328C495.12 212.924 493.089 211.118 491.734 208.911C490.38 206.703 489.703 204.371 489.703 201.913V176.255C489.703 175.302 489.602 174.399 489.402 173.546C489.251 172.643 488.85 171.916 488.198 171.364C487.546 170.762 486.417 170.461 484.812 170.461C484.31 170.461 483.884 170.411 483.533 170.31C483.181 170.21 482.981 169.733 482.931 168.881C482.931 168.479 483.031 168.103 483.232 167.752C483.432 167.401 483.783 167.225 484.285 167.225C485.89 167.276 487.395 167.326 488.8 167.376C490.204 167.426 491.659 167.451 493.164 167.451C496.224 167.451 499.359 167.376 502.569 167.225C503.071 167.225 503.422 167.401 503.623 167.752C503.823 168.103 503.924 168.479 503.924 168.881C503.874 169.633 503.723 170.085 503.472 170.235C503.221 170.386 502.87 170.461 502.419 170.461C500.713 170.461 499.484 170.737 498.732 171.289C498.03 171.79 497.603 172.492 497.453 173.395C497.302 174.248 497.202 175.201 497.152 176.255V199.731C497.152 201.035 497.277 202.414 497.528 203.869C497.829 205.274 498.381 206.603 499.183 207.857C499.986 209.061 501.165 210.064 502.72 210.867C504.325 211.619 506.457 211.996 509.116 211.996C512.527 211.996 515.135 211.444 516.941 210.34C518.797 209.186 520.076 207.757 520.778 206.051C521.481 204.346 521.832 202.59 521.832 200.784V180.995C521.832 177.684 521.706 175.302 521.456 173.847C521.205 172.342 520.653 171.414 519.8 171.063C518.998 170.661 517.744 170.461 516.038 170.461C515.536 170.461 515.11 170.411 514.759 170.31C514.408 170.21 514.207 169.733 514.157 168.881C514.157 168.479 514.257 168.103 514.458 167.752C514.659 167.401 515.01 167.225 515.511 167.225C517.117 167.276 518.546 167.326 519.8 167.376C521.054 167.426 522.434 167.451 523.939 167.451C525.444 167.451 526.823 167.426 528.077 167.376C529.331 167.326 530.761 167.276 532.366 167.225C532.868 167.225 533.219 167.401 533.419 167.752C533.62 168.103 533.72 168.479 533.72 168.881C533.67 169.633 533.52 170.085 533.269 170.235C533.018 170.386 532.667 170.461 532.216 170.461C530.861 170.461 529.758 170.536 528.905 170.687C528.102 170.837 527.475 171.238 527.024 171.89C526.622 172.492 526.346 173.496 526.196 174.9C526.096 176.255 526.046 178.136 526.046 180.544V201.537C526.046 204.195 525.469 206.478 524.315 208.384C523.211 210.29 521.732 211.845 519.875 213.049C518.07 214.203 516.113 215.055 514.006 215.607C511.9 216.159 509.868 216.435 507.912 216.435Z" fill="#435698"/>
<path d="M458.006 215.156C457.504 215.156 457.153 214.98 456.952 214.629C456.752 214.278 456.651 213.902 456.651 213.5C456.702 212.648 456.902 212.171 457.253 212.071C457.604 211.97 458.031 211.92 458.532 211.92C460.138 211.92 461.266 211.644 461.918 211.093C462.571 210.491 462.972 209.763 463.122 208.911C463.323 208.008 463.448 207.08 463.499 206.127V176.255C463.448 175.302 463.323 174.399 463.122 173.546C462.972 172.643 462.571 171.916 461.918 171.364C461.266 170.762 460.138 170.461 458.532 170.461C458.031 170.461 457.604 170.411 457.253 170.31C456.902 170.21 456.702 169.733 456.651 168.881C456.651 168.479 456.752 168.103 456.952 167.752C457.153 167.401 457.504 167.225 458.006 167.225C459.611 167.276 461.116 167.326 462.52 167.376C463.975 167.426 465.455 167.451 466.96 167.451C470.02 167.451 473.155 167.376 476.365 167.225C476.817 167.225 477.143 167.401 477.343 167.752C477.594 168.103 477.72 168.479 477.72 168.881C477.67 169.733 477.469 170.21 477.118 170.31C476.767 170.411 476.315 170.461 475.763 170.461C474.208 170.461 473.08 170.762 472.377 171.364C471.725 171.916 471.324 172.643 471.173 173.546C471.023 174.399 470.923 175.302 470.872 176.255V206.127C470.923 207.08 471.023 208.008 471.173 208.911C471.324 209.763 471.725 210.491 472.377 211.093C473.08 211.644 474.208 211.92 475.763 211.92C476.315 211.92 476.767 211.97 477.118 212.071C477.469 212.171 477.67 212.648 477.72 213.5C477.72 213.902 477.594 214.278 477.343 214.629C477.143 214.98 476.817 215.156 476.365 215.156C473.155 215.005 470.045 214.93 467.035 214.93C465.53 214.93 464.05 214.93 462.596 214.93C461.141 214.98 459.611 215.055 458.006 215.156Z" fill="#435698"/>
<path d="M407.601 215.156C407.099 215.156 406.748 214.98 406.547 214.629C406.346 214.278 406.246 213.902 406.246 213.5C406.296 212.648 406.497 212.171 406.848 212.071C407.199 211.97 407.626 211.92 408.127 211.92C409.732 211.92 410.861 211.644 411.513 211.093C412.165 210.491 412.567 209.763 412.717 208.911C412.918 208.008 413.018 207.08 413.018 206.127V176.33C413.018 175.377 412.918 174.449 412.717 173.546C412.567 172.643 412.165 171.916 411.513 171.364C410.861 170.762 409.732 170.461 408.127 170.461C407.626 170.461 407.199 170.411 406.848 170.31C406.497 170.21 406.296 169.733 406.246 168.881C406.246 168.479 406.346 168.103 406.547 167.752C406.748 167.401 407.099 167.225 407.601 167.225C409.206 167.276 410.711 167.326 412.115 167.376C413.57 167.426 415.05 167.451 416.555 167.451H429.497C433.56 167.501 436.845 168.128 439.354 169.332C441.912 170.536 443.768 172.066 444.922 173.922C446.075 175.778 446.652 177.709 446.652 179.716C446.652 182.374 445.574 184.883 443.417 187.24C441.31 189.598 438.325 191.278 434.463 192.282C436.369 195.291 438.3 198.326 440.256 201.386C442.213 204.396 444.47 207.23 447.028 209.889C447.731 210.441 448.408 210.892 449.06 211.243C449.762 211.594 450.59 211.82 451.543 211.92C451.944 211.97 452.346 212.046 452.747 212.146C453.148 212.196 453.374 212.648 453.424 213.5C453.424 213.902 453.324 214.278 453.123 214.629C452.923 214.98 452.571 215.156 452.07 215.156C451.016 215.106 450.164 215.055 449.511 215.005C448.91 215.005 448.308 214.98 447.706 214.93C447.104 214.93 446.301 214.93 445.298 214.93C443.241 214.529 441.485 213.801 440.031 212.748C438.626 211.695 437.247 210.24 435.892 208.384C434.488 206.478 433.183 204.546 431.98 202.59C430.776 200.634 429.597 198.728 428.443 196.872C427.791 195.818 427.114 195.066 426.412 194.614C425.759 194.113 424.505 193.862 422.649 193.862H420.467V206.127C420.517 207.08 420.618 208.008 420.768 208.911C420.919 209.763 421.32 210.491 421.972 211.093C422.674 211.644 423.803 211.92 425.358 211.92C425.86 211.92 426.286 211.97 426.637 212.071C426.988 212.171 427.189 212.648 427.239 213.5C427.239 213.902 427.139 214.278 426.938 214.629C426.738 214.98 426.386 215.156 425.885 215.156C422.674 215.005 419.539 214.93 416.479 214.93C414.974 214.93 413.52 214.93 412.115 214.93C410.711 214.98 409.206 215.055 407.601 215.156ZM420.467 190.927H427.089C429.647 190.927 431.654 190.576 433.108 189.874C434.613 189.172 435.742 188.269 436.494 187.165C437.247 186.061 437.723 184.908 437.924 183.704C438.175 182.5 438.3 181.396 438.3 180.393C438.3 178.738 437.924 177.132 437.171 175.577C436.469 174.022 435.19 172.743 433.334 171.74C431.528 170.737 428.995 170.235 425.734 170.235C423.577 170.235 422.148 170.661 421.445 171.514C420.793 172.317 420.467 173.972 420.467 176.48V190.927Z" fill="#435698"/>
<path d="M376.1 216.435C372.438 216.435 369.127 215.758 366.167 214.403C363.208 213.049 360.675 211.218 358.568 208.911C356.461 206.603 354.856 203.995 353.752 201.085C352.648 198.126 352.097 195.041 352.097 191.83C352.097 187.667 352.799 183.98 354.204 180.769C355.658 177.559 357.564 174.85 359.922 172.643C362.28 170.436 364.863 168.78 367.672 167.677C370.531 166.523 373.341 165.946 376.1 165.946C379.862 165.946 383.223 166.623 386.182 167.978C389.192 169.332 391.75 171.163 393.857 173.471C395.964 175.778 397.569 178.412 398.673 181.371C399.776 184.281 400.328 187.316 400.328 190.476C400.328 194.639 399.601 198.326 398.146 201.537C396.691 204.747 394.76 207.456 392.352 209.663C389.944 211.87 387.311 213.551 384.452 214.704C381.643 215.858 378.858 216.435 376.1 216.435ZM376.024 213.124C379.586 213.124 382.495 212.071 384.753 209.964C387.01 207.857 388.665 205.098 389.719 201.687C390.822 198.226 391.374 194.489 391.374 190.476C391.374 186.714 390.797 183.227 389.643 180.017C388.54 176.756 386.859 174.148 384.602 172.192C382.345 170.185 379.486 169.182 376.024 169.182C372.513 169.182 369.629 170.235 367.371 172.342C365.164 174.399 363.534 177.133 362.48 180.544C361.427 183.905 360.9 187.591 360.9 191.605C360.9 195.367 361.427 198.903 362.48 202.214C363.584 205.475 365.264 208.108 367.522 210.115C369.779 212.121 372.613 213.124 376.024 213.124Z" fill="#435698"/>
<path d="M316.913 215.156C316.411 215.156 316.06 214.98 315.859 214.629C315.659 214.278 315.558 213.902 315.558 213.501C315.609 212.648 315.809 212.171 316.16 212.071C316.511 211.971 316.938 211.92 317.439 211.92C319.045 211.92 320.173 211.645 320.825 211.093C321.478 210.491 321.879 209.763 322.029 208.911C322.23 208.008 322.33 207.08 322.33 206.127V170.235H317.138C315.433 170.285 314.104 170.662 313.151 171.364C312.197 172.016 311.495 173.069 311.044 174.524C310.592 175.929 310.191 177.76 309.84 180.017C309.79 180.468 309.464 180.82 308.862 181.07C308.31 181.271 307.758 181.371 307.206 181.371C306.855 181.371 306.454 181.246 306.002 180.995C305.601 180.744 305.4 180.368 305.4 179.866L305.626 169.257C305.626 168.555 305.827 168.078 306.228 167.827C306.629 167.577 307.106 167.451 307.658 167.451H344.452C345.004 167.451 345.455 167.577 345.806 167.827C346.208 168.078 346.408 168.555 346.408 169.257L346.709 179.866C346.709 180.368 346.484 180.744 346.032 180.995C345.631 181.246 345.23 181.371 344.828 181.371C344.327 181.371 343.8 181.271 343.248 181.07C342.696 180.82 342.37 180.468 342.27 180.017C341.919 177.76 341.492 175.929 340.991 174.524C340.539 173.069 339.837 172.016 338.884 171.364C337.981 170.662 336.652 170.285 334.896 170.235H329.779V206.127C329.83 207.08 329.93 208.008 330.08 208.911C330.231 209.763 330.632 210.491 331.284 211.093C331.987 211.645 333.115 211.92 334.67 211.92C335.172 211.92 335.598 211.971 335.949 212.071C336.301 212.171 336.501 212.648 336.551 213.501C336.551 213.902 336.451 214.278 336.25 214.629C336.05 214.98 335.699 215.156 335.197 215.156C333.592 215.056 332.062 214.98 330.607 214.93C329.203 214.93 327.773 214.93 326.318 214.93C323.308 214.93 320.173 215.005 316.913 215.156Z" fill="#435698"/>
<path d="M281.433 215.156C280.931 215.156 280.58 214.98 280.379 214.629C280.178 214.278 280.078 213.902 280.078 213.5C280.128 212.648 280.329 212.171 280.68 212.071C281.031 211.97 281.458 211.92 281.959 211.92C283.564 211.92 284.693 211.644 285.345 211.093C285.997 210.491 286.399 209.763 286.549 208.911C286.75 208.008 286.875 207.08 286.925 206.127V176.255C286.875 175.302 286.75 174.399 286.549 173.546C286.399 172.643 285.997 171.916 285.345 171.364C284.693 170.762 283.564 170.461 281.959 170.461C281.458 170.461 281.031 170.411 280.68 170.31C280.329 170.21 280.128 169.733 280.078 168.881C280.078 168.479 280.178 168.103 280.379 167.752C280.58 167.401 280.931 167.225 281.433 167.225C283.038 167.276 284.543 167.326 285.947 167.376C287.402 167.426 288.882 167.451 290.387 167.451C293.446 167.451 296.582 167.376 299.792 167.225C300.244 167.225 300.57 167.401 300.77 167.752C301.021 168.103 301.146 168.479 301.146 168.881C301.096 169.733 300.896 170.21 300.545 170.31C300.193 170.411 299.742 170.461 299.19 170.461C297.635 170.461 296.506 170.762 295.804 171.364C295.152 171.916 294.751 172.643 294.6 173.546C294.45 174.399 294.349 175.302 294.299 176.255V206.127C294.349 207.08 294.45 208.008 294.6 208.911C294.751 209.763 295.152 210.491 295.804 211.093C296.506 211.644 297.635 211.92 299.19 211.92C299.742 211.92 300.193 211.97 300.545 212.071C300.896 212.171 301.096 212.648 301.146 213.5C301.146 213.902 301.021 214.278 300.77 214.629C300.57 214.98 300.244 215.156 299.792 215.156C296.582 215.005 293.472 214.93 290.462 214.93C288.957 214.93 287.477 214.93 286.022 214.93C284.568 214.98 283.038 215.055 281.433 215.156Z" fill="#435698"/>
<path d="M231.026 215.156C230.525 215.156 230.174 214.98 229.973 214.629C229.772 214.278 229.672 213.902 229.672 213.5C229.722 212.648 229.923 212.171 230.274 212.071C230.625 211.97 231.051 211.92 231.553 211.92C233.158 211.92 234.287 211.644 234.939 211.093C235.591 210.491 235.992 209.763 236.143 208.911C236.344 208.008 236.444 207.08 236.444 206.127V176.33C236.444 175.377 236.344 174.449 236.143 173.546C235.992 172.643 235.591 171.916 234.939 171.364C234.287 170.762 233.158 170.461 231.553 170.461C231.051 170.461 230.625 170.411 230.274 170.31C229.923 170.21 229.722 169.733 229.672 168.881C229.672 168.479 229.772 168.103 229.973 167.752C230.174 167.401 230.525 167.225 231.026 167.225C232.631 167.276 234.136 167.326 235.541 167.376C236.996 167.426 238.475 167.451 239.98 167.451H252.922C256.985 167.501 260.271 168.128 262.779 169.332C265.338 170.536 267.194 172.066 268.347 173.922C269.501 175.778 270.078 177.709 270.078 179.716C270.078 182.374 268.999 184.883 266.842 187.24C264.736 189.598 261.751 191.278 257.888 192.282C259.795 195.291 261.726 198.326 263.682 201.386C265.639 204.396 267.896 207.23 270.454 209.889C271.156 210.441 271.834 210.892 272.486 211.243C273.188 211.594 274.016 211.82 274.969 211.92C275.37 211.97 275.771 212.046 276.173 212.146C276.574 212.196 276.8 212.648 276.85 213.5C276.85 213.902 276.75 214.278 276.549 214.629C276.348 214.98 275.997 215.156 275.496 215.156C274.442 215.106 273.589 215.055 272.937 215.005C272.335 215.005 271.733 214.98 271.131 214.93C270.529 214.93 269.727 214.93 268.724 214.93C266.667 214.529 264.911 213.801 263.456 212.748C262.052 211.695 260.672 210.24 259.318 208.384C257.913 206.478 256.609 204.546 255.405 202.59C254.201 200.634 253.023 198.728 251.869 196.872C251.217 195.818 250.54 195.066 249.837 194.614C249.185 194.113 247.931 193.862 246.075 193.862H243.893V206.127C243.943 207.08 244.043 208.008 244.194 208.911C244.344 209.763 244.746 210.491 245.398 211.093C246.1 211.644 247.229 211.92 248.784 211.92C249.286 211.92 249.712 211.97 250.063 212.071C250.414 212.171 250.615 212.648 250.665 213.5C250.665 213.902 250.565 214.278 250.364 214.629C250.163 214.98 249.812 215.156 249.311 215.156C246.1 215.005 242.965 214.93 239.905 214.93C238.4 214.93 236.945 214.93 235.541 214.93C234.136 214.98 232.631 215.055 231.026 215.156ZM243.893 190.927H250.514C253.073 190.927 255.079 190.576 256.534 189.874C258.039 189.172 259.168 188.269 259.92 187.165C260.672 186.061 261.149 184.908 261.35 183.704C261.6 182.5 261.726 181.396 261.726 180.393C261.726 178.738 261.35 177.132 260.597 175.577C259.895 174.022 258.616 172.743 256.76 171.74C254.954 170.737 252.421 170.235 249.16 170.235C247.003 170.235 245.573 170.661 244.871 171.514C244.219 172.317 243.893 173.972 243.893 176.48V190.927Z" fill="#435698"/>
<path d="M180.545 215.156C180.043 215.156 179.692 214.98 179.491 214.629C179.291 214.278 179.19 213.902 179.19 213.5C179.241 212.648 179.441 212.171 179.792 212.071C180.144 211.97 180.57 211.92 181.072 211.92C182.677 211.92 183.805 211.644 184.458 211.093C185.11 210.491 185.511 209.763 185.661 208.911C185.862 208.008 185.962 207.08 185.962 206.127V176.33C185.962 175.377 185.862 174.449 185.661 173.546C185.511 172.643 185.11 171.916 184.458 171.364C183.805 170.762 182.677 170.461 181.072 170.461C180.57 170.461 180.144 170.411 179.792 170.31C179.441 170.21 179.241 169.733 179.19 168.881C179.19 168.479 179.291 168.103 179.491 167.752C179.692 167.401 180.043 167.225 180.545 167.225C182.15 167.276 183.655 167.326 185.059 167.376C186.514 167.426 187.994 167.451 189.499 167.451H202.441C206.504 167.501 209.79 168.128 212.298 169.332C214.856 170.536 216.712 172.066 217.866 173.922C219.02 175.778 219.596 177.709 219.596 179.716C219.596 182.374 218.518 184.883 216.361 187.24C214.254 189.598 211.269 191.278 207.407 192.282C209.313 195.291 211.244 198.326 213.201 201.386C215.157 204.396 217.414 207.23 219.973 209.889C220.675 210.441 221.352 210.892 222.004 211.243C222.707 211.594 223.534 211.82 224.487 211.92C224.889 211.97 225.29 212.046 225.691 212.146C226.093 212.196 226.318 212.648 226.368 213.5C226.368 213.902 226.268 214.278 226.067 214.629C225.867 214.98 225.516 215.156 225.014 215.156C223.961 215.106 223.108 215.055 222.456 215.005C221.854 215.005 221.252 214.98 220.65 214.93C220.048 214.93 219.245 214.93 218.242 214.93C216.185 214.529 214.43 213.801 212.975 212.748C211.57 211.695 210.191 210.24 208.837 208.384C207.432 206.478 206.128 204.546 204.924 202.59C203.72 200.634 202.541 198.728 201.387 196.872C200.735 195.818 200.058 195.066 199.356 194.614C198.704 194.113 197.45 193.862 195.594 193.862H193.412V206.127C193.462 207.08 193.562 208.008 193.713 208.911C193.863 209.763 194.264 210.491 194.916 211.093C195.619 211.644 196.747 211.92 198.302 211.92C198.804 211.92 199.23 211.97 199.582 212.071C199.933 212.171 200.133 212.648 200.184 213.5C200.184 213.902 200.083 214.278 199.883 214.629C199.682 214.98 199.331 215.156 198.829 215.156C195.619 215.005 192.484 214.93 189.424 214.93C187.919 214.93 186.464 214.93 185.059 214.93C183.655 214.98 182.15 215.055 180.545 215.156ZM193.412 190.927H200.033C202.591 190.927 204.598 190.576 206.053 189.874C207.557 189.172 208.686 188.269 209.439 187.165C210.191 186.061 210.668 184.908 210.868 183.704C211.119 182.5 211.244 181.396 211.244 180.393C211.244 178.738 210.868 177.132 210.116 175.577C209.413 174.022 208.134 172.743 206.278 171.74C204.472 170.737 201.939 170.235 198.679 170.235C196.522 170.235 195.092 170.661 194.39 171.514C193.738 172.317 193.412 173.972 193.412 176.48V190.927Z" fill="#435698"/>
<path d="M135.793 215.156C135.341 215.156 135.015 214.98 134.815 214.629C134.614 214.278 134.514 213.902 134.514 213.5C134.564 212.648 134.764 212.171 135.116 212.071C135.467 211.97 135.893 211.92 136.395 211.92C138 211.92 139.129 211.644 139.781 211.093C140.433 210.491 140.834 209.763 140.985 208.911C141.185 208.008 141.286 207.08 141.286 206.127V176.255C141.286 175.302 141.185 174.399 140.985 173.546C140.834 172.643 140.433 171.916 139.781 171.364C139.129 170.762 138 170.461 136.395 170.461C135.893 170.461 135.467 170.411 135.116 170.31C134.764 170.21 134.564 169.733 134.514 168.881C134.514 168.479 134.614 168.103 134.815 167.752C135.015 167.401 135.341 167.225 135.793 167.225C137.448 167.276 138.978 167.326 140.383 167.376C141.787 167.426 143.242 167.451 144.747 167.451H168.373C168.925 167.451 169.377 167.576 169.728 167.827C170.129 168.078 170.33 168.555 170.33 169.257L170.556 179.791C170.556 180.293 170.305 180.669 169.803 180.92C169.352 181.171 168.925 181.296 168.524 181.296C167.972 181.296 167.471 181.196 167.019 180.995C166.568 180.744 166.292 180.393 166.191 179.942C165.84 177.684 165.414 175.878 164.912 174.524C164.461 173.119 163.759 172.116 162.805 171.514C161.903 170.862 160.573 170.511 158.817 170.461H148.735V189.573H162.354C162.755 189.623 163.031 189.824 163.182 190.175C163.382 190.526 163.483 190.902 163.483 191.303C163.483 191.655 163.382 192.006 163.182 192.357C163.031 192.658 162.755 192.808 162.354 192.808H148.735V207.029C148.785 207.682 148.885 208.409 149.036 209.212C149.186 209.964 149.613 210.616 150.315 211.168C151.067 211.72 152.296 211.97 154.002 211.92H160.924C162.68 211.87 164.009 211.594 164.912 211.093C165.865 210.541 166.618 209.638 167.17 208.384C167.721 207.13 168.323 205.399 168.975 203.192C169.176 202.69 169.502 202.364 169.954 202.214C170.455 202.063 170.982 202.038 171.534 202.139C171.935 202.189 172.336 202.364 172.738 202.665C173.189 202.966 173.39 203.368 173.34 203.869L171.835 213.35C171.684 214.052 171.433 214.504 171.082 214.704C170.781 214.855 170.305 214.93 169.653 214.93H144.822C143.317 214.93 141.837 214.93 140.383 214.93C138.978 214.98 137.448 215.055 135.793 215.156Z" fill="#435698"/>
<path d="M100.512 215.156C100.011 215.156 99.6596 214.98 99.4589 214.629C99.2583 214.278 99.158 213.902 99.158 213.501C99.2081 212.648 99.4088 212.171 99.7599 212.071C100.111 211.971 100.537 211.92 101.039 211.92C102.644 211.92 103.773 211.645 104.425 211.093C105.077 210.491 105.478 209.763 105.629 208.911C105.83 208.008 105.93 207.08 105.93 206.127V170.235H100.738C99.0325 170.285 97.7032 170.662 96.7501 171.364C95.797 172.016 95.0948 173.069 94.6433 174.524C94.1918 175.929 93.7905 177.76 93.4394 180.017C93.3892 180.468 93.0632 180.82 92.4612 181.07C91.9094 181.271 91.3576 181.371 90.8059 181.371C90.4547 181.371 90.0534 181.246 89.602 180.995C89.2007 180.744 89 180.368 89 179.866L89.2257 169.257C89.2257 168.555 89.4264 168.078 89.8277 167.827C90.229 167.577 90.7055 167.451 91.2573 167.451H128.052C128.603 167.451 129.055 167.577 129.406 167.827C129.807 168.078 130.008 168.555 130.008 169.257L130.309 179.866C130.309 180.368 130.083 180.744 129.632 180.995C129.23 181.246 128.829 181.371 128.428 181.371C127.926 181.371 127.4 181.271 126.848 181.07C126.296 180.82 125.97 180.468 125.87 180.017C125.518 177.76 125.092 175.929 124.59 174.524C124.139 173.069 123.437 172.016 122.484 171.364C121.581 170.662 120.251 170.285 118.496 170.235H113.379V206.127C113.429 207.08 113.53 208.008 113.68 208.911C113.831 209.763 114.232 210.491 114.884 211.093C115.586 211.645 116.715 211.92 118.27 211.92C118.772 211.92 119.198 211.971 119.549 212.071C119.9 212.171 120.101 212.648 120.151 213.501C120.151 213.902 120.051 214.278 119.85 214.629C119.649 214.98 119.298 215.156 118.797 215.156C117.191 215.056 115.661 214.98 114.207 214.93C112.802 214.93 111.373 214.93 109.918 214.93C106.908 214.93 103.773 215.005 100.512 215.156Z" fill="#435698"/>
<path d="M366.029 46.5996C373.465 45.0706 381.232 44.4393 388.12 45.5954C395.021 46.7535 401.125 49.7243 405.05 55.4665C412.43 66.2625 421.845 77.5541 430.788 86.641C435.26 91.1839 439.601 95.1634 443.501 98.2498C447.42 101.352 450.823 103.495 453.424 104.438C458.897 106.423 467.868 109.162 476.41 113.826C484.962 118.495 493.255 125.177 497.317 135.165C497.543 135.72 497.276 136.353 496.722 136.579C496.167 136.805 495.534 136.538 495.308 135.983C491.513 126.654 483.715 120.285 475.371 115.73C467.018 111.169 458.288 108.51 452.685 106.478C449.748 105.413 446.124 103.093 442.155 99.9511C438.166 96.7939 433.757 92.7493 429.242 88.1627C420.214 78.9902 410.716 67.5997 403.259 56.6905C399.765 51.5801 394.278 48.8285 387.761 47.7347C381.232 46.6389 373.755 47.2257 366.466 48.7246C359.186 50.2216 352.155 52.6156 346.547 55.0814C343.743 56.3141 341.307 57.5594 339.381 58.7116C337.433 59.8769 336.077 60.9055 335.371 61.6888C334.45 62.7104 333.06 63.7383 331.4 64.7544C329.726 65.7791 327.715 66.8289 325.5 67.8793C321.069 69.9801 315.76 72.1142 310.573 74.0889C305.39 76.0624 300.289 77.8916 296.307 79.3668C294.31 80.1069 292.597 80.7572 291.282 81.2963C289.918 81.855 289.107 82.2464 288.808 82.4621C287.901 83.1157 286.242 84.0675 284.267 85.1882C282.262 86.3256 279.873 87.6693 277.424 89.1383C272.481 92.1039 267.482 95.4756 264.981 98.5459C264.226 99.4735 262.98 100.51 261.449 101.6C259.899 102.704 257.987 103.91 255.841 105.171C251.546 107.693 246.26 110.463 240.942 113.099C230.319 118.364 219.472 123.143 216.026 124.385C209.419 126.768 199.871 133.276 195.389 136.459C194.9 136.805 194.223 136.691 193.876 136.202C193.529 135.714 193.644 135.036 194.132 134.69C198.566 131.542 208.356 124.845 215.29 122.345C218.615 121.145 229.372 116.412 239.978 111.155C245.275 108.53 250.51 105.786 254.742 103.3C256.859 102.057 258.712 100.886 260.191 99.833C261.689 98.7667 262.736 97.8681 263.3 97.1762C266.075 93.769 271.401 90.2222 276.308 87.2782C278.785 85.7924 281.202 84.4332 283.196 83.3016C285.22 82.1533 286.751 81.2699 287.538 80.7026C288.085 80.3078 289.154 79.8231 290.459 79.2884C291.811 78.7343 293.554 78.0736 295.554 77.3324C299.567 75.8453 304.627 74.0315 309.801 72.0614C314.972 70.0925 320.218 67.9826 324.57 65.9191C326.746 64.8873 328.683 63.8744 330.267 62.9043C331.866 61.9257 333.047 61.0261 333.76 60.2354C334.688 59.2064 336.269 58.045 338.267 56.8499C340.287 55.6417 342.806 54.3559 345.674 53.0952C351.408 50.5744 358.584 48.1305 366.029 46.5996ZM370.898 55.9929C375.365 55.1033 379.382 54.6515 382.14 55.0025C385.029 55.3701 387.859 57.0904 390.605 59.469C393.368 61.8615 396.163 65.0256 398.977 68.4646C404.657 75.4057 410.401 83.4372 416.4 89.2114C422.441 95.0259 429.538 101.328 436.426 106.46C443.352 111.621 449.931 115.495 454.961 116.608C466.069 119.066 471.308 129.055 474.297 135.093C474.563 135.629 474.344 136.28 473.807 136.546C473.27 136.812 472.619 136.592 472.354 136.056C469.324 129.938 464.477 120.936 454.492 118.727C448.975 117.506 442.076 113.376 435.129 108.2C428.144 102.995 420.975 96.6264 414.896 90.7744C408.774 84.882 402.839 76.6107 397.298 69.8385C394.502 66.4207 391.802 63.375 389.185 61.1088C386.552 58.8288 384.121 57.4414 381.866 57.1544C379.481 56.851 375.76 57.2366 371.323 58.1205C366.919 58.9976 361.923 60.3413 357.044 61.8789C352.166 63.4161 347.423 65.1412 343.528 66.776C339.595 68.4269 336.635 69.942 335.235 71.0402C333.589 72.3316 330.428 73.9515 326.583 75.6937C322.7 77.4533 318.004 79.3874 313.203 81.2995C303.563 85.1383 293.552 88.8679 288.6 90.99C283.822 93.0373 278.677 97.42 273 102.304C267.39 107.131 261.318 112.392 254.836 115.908C248.463 119.364 240.276 123.511 232.963 127.289C225.61 131.086 219.196 134.482 216.268 136.471C215.772 136.808 215.098 136.679 214.761 136.184C214.425 135.688 214.553 135.014 215.049 134.677C218.111 132.596 224.667 129.131 231.967 125.361C239.306 121.57 247.455 117.443 253.802 114.001C260.04 110.617 265.93 105.525 271.585 100.66C277.172 95.8525 282.594 91.2036 287.746 88.9958C292.723 86.8627 302.853 83.0862 312.4 79.2842C317.192 77.3759 321.851 75.4562 325.688 73.7176C329.563 71.9616 332.487 70.4393 333.896 69.3337C335.551 68.035 338.762 66.4239 342.689 64.7756C346.654 63.1112 351.46 61.3638 356.392 59.8096C361.323 58.2557 366.397 56.8895 370.898 55.9929Z" fill="#435698"/>
<path d="M430.355 243.516L439.303 243.506L439.306 245.296L428.404 245.308L428.382 226.109L430.334 226.107L430.355 243.516Z" fill="#435698"/>
<path d="M398.769 238.509L407.094 238.499L402.933 228.416L398.769 238.509ZM395.929 245.346L393.651 245.349L401.981 226.139L403.88 226.137L412.254 245.327L409.976 245.33L407.855 240.288L398.038 240.3L395.929 245.346Z" fill="#435698"/>
<path d="M375.134 245.37L373.182 245.372L373.161 227.963L366.734 227.97L366.732 226.18L381.539 226.163L381.541 227.953L375.114 227.96L375.134 245.37Z" fill="#435698"/>
<path d="M350.221 245.399L348.268 245.401L348.246 226.202L350.199 226.2L350.221 245.399Z" fill="#435698"/>
<path d="M321.078 234.721L324.223 234.718C325.091 234.717 325.823 234.625 326.42 234.444C327.034 234.262 327.522 234.027 327.883 233.737C328.244 233.429 328.506 233.077 328.668 232.679C328.83 232.263 328.911 231.82 328.911 231.35C328.91 230.898 328.828 230.473 328.665 230.075C328.502 229.66 328.239 229.298 327.878 228.991C327.516 228.685 327.027 228.45 326.412 228.288C325.816 228.108 325.083 228.018 324.216 228.019L321.07 228.023L321.078 234.721ZM319.115 226.236L324.702 226.229C326.654 226.227 328.191 226.65 329.313 227.498C330.453 228.347 331.024 229.63 331.026 231.347C331.028 233.065 330.46 234.358 329.322 235.227C328.202 236.078 326.666 236.505 324.713 236.507L321.08 236.511L321.09 245.433L319.138 245.435L319.115 226.236Z" fill="#435698"/>
<path d="M289.503 238.636L297.828 238.626L293.667 228.543L289.503 238.636ZM286.663 245.473L284.386 245.475L292.716 226.266L294.614 226.264L302.988 245.454L300.711 245.456L298.59 240.415L288.773 240.426L286.663 245.473Z" fill="#435698"/>
<path d="M270.142 242.455C269.818 242.943 269.411 243.405 268.924 243.839C268.454 244.274 267.912 244.654 267.298 244.98C266.684 245.288 266.015 245.533 265.292 245.715C264.587 245.896 263.837 245.987 263.042 245.988C261.613 245.99 260.284 245.738 259.054 245.234C257.843 244.729 256.784 244.034 255.879 243.149C254.992 242.246 254.295 241.181 253.787 239.952C253.28 238.723 253.025 237.376 253.023 235.912C253.022 234.448 253.273 233.101 253.778 231.871C254.283 230.641 254.978 229.582 255.862 228.695C256.765 227.79 257.822 227.084 259.033 226.577C260.262 226.069 261.59 225.814 263.018 225.813C264.211 225.811 265.405 226.045 266.599 226.514C267.792 226.982 268.815 227.758 269.666 228.842L267.959 230.119C267.76 229.812 267.488 229.505 267.144 229.198C266.8 228.891 266.402 228.62 265.95 228.385C265.516 228.151 265.046 227.962 264.539 227.818C264.033 227.674 263.527 227.602 263.02 227.602C261.791 227.604 260.688 227.831 259.713 228.284C258.737 228.737 257.906 229.344 257.22 230.104C256.552 230.864 256.038 231.751 255.677 232.763C255.317 233.758 255.137 234.807 255.139 235.91C255.14 237.012 255.322 238.07 255.685 239.082C256.047 240.076 256.564 240.952 257.233 241.71C257.921 242.469 258.754 243.074 259.73 243.524C260.707 243.975 261.81 244.2 263.04 244.199C263.546 244.198 264.043 244.152 264.531 244.061C265.037 243.97 265.525 243.816 265.995 243.599C266.483 243.381 266.934 243.091 267.35 242.729C267.783 242.349 268.18 241.879 268.541 241.318L270.142 242.455Z" fill="#435698"/>
</svg>
