<svg width="1219" height="1047" viewBox="0 0 1219 1047" fill="none" xmlns="http://www.w3.org/2000/svg">
<rect width="1219" height="1047" fill="white"/>
<path d="M470.85 509.958C470.248 510.291 469.489 510.073 469.156 509.47C468.822 508.868 469.04 508.109 469.642 507.775L470.85 509.958ZM609.009 445.575C615.685 442.116 627.14 439.824 639.309 441.306C651.513 442.794 664.562 448.094 674.29 459.971C678.893 465.592 682.001 471.146 685.231 475.837C688.495 480.578 692.008 484.661 697.64 487.834C701.241 489.863 707.033 494.713 712.131 499.059C714.709 501.257 717.128 503.342 719.068 504.942C720.037 505.741 720.871 506.407 721.535 506.897C722.248 507.423 722.636 507.649 722.762 507.695C723.408 507.932 723.741 508.648 723.504 509.295C723.267 509.942 722.55 510.274 721.903 510.037C721.388 509.849 720.722 509.398 720.053 508.904C719.336 508.373 718.461 507.675 717.48 506.866C715.519 505.249 713.073 503.139 710.513 500.957C705.334 496.542 699.755 491.889 696.416 490.007C690.321 486.573 686.549 482.15 683.176 477.252C679.769 472.304 676.888 467.082 672.359 461.552C663.125 450.277 650.723 445.211 639.007 443.783C627.256 442.351 616.32 444.596 610.156 447.79C608.519 448.638 605.564 450.274 601.784 452.331C598.017 454.38 593.461 456.831 588.664 459.287C579.11 464.178 568.468 469.157 561.196 470.967C552.709 473.08 535.551 477.643 527.977 480.972C527.951 480.984 527.924 481.001 527.889 481.03L494.118 509.816C493.594 510.262 492.807 510.199 492.36 509.675C491.913 509.151 491.975 508.364 492.5 507.917L526.271 479.132C526.477 478.955 526.709 478.805 526.973 478.689C534.782 475.257 552.165 470.644 560.594 468.547C567.547 466.816 577.946 461.971 587.527 457.066C592.297 454.624 596.832 452.184 600.592 450.139C604.337 448.102 607.342 446.439 609.009 445.575ZM619.698 456.029C624.281 455.682 629.602 456.124 634.806 457.142C640.013 458.16 645.161 459.766 649.396 461.781C653.581 463.771 657.078 466.255 658.715 469.142C661.6 474.231 666.113 482.251 672.515 489.826C678.92 497.405 687.143 504.45 697.402 507.677C698.059 507.883 698.424 508.584 698.217 509.241C698.011 509.898 697.311 510.263 696.653 510.056C685.772 506.634 677.178 499.208 670.61 491.437C664.04 483.662 659.424 475.451 656.544 470.372C655.298 468.174 652.389 465.966 648.325 464.033C644.313 462.125 639.371 460.577 634.327 459.591C629.282 458.604 624.192 458.191 619.887 458.516C615.519 458.847 612.214 459.918 610.458 461.65C608.631 463.452 605.428 465.317 601.592 467.141C597.717 468.984 593.059 470.847 588.211 472.611C578.513 476.139 567.972 479.297 561.221 481.129L561.147 481.15L561.072 481.16C533.039 485.169 517.5 501.838 513.3 509.468C512.968 510.071 512.209 510.291 511.606 509.959C511.003 509.627 510.783 508.868 511.115 508.265C515.665 499.998 531.832 482.85 560.634 478.703C567.339 476.882 577.773 473.754 587.359 470.266C592.168 468.517 596.744 466.684 600.52 464.888C604.336 463.074 607.202 461.357 608.706 459.874C611.115 457.499 615.178 456.371 619.698 456.029ZM648.124 404.601C661.088 403.952 676.25 406.515 686.483 419.716C688.4 422.189 690.521 426.032 692.974 430.477C695.45 434.963 698.311 440.153 701.752 445.463C708.64 456.093 717.783 467.098 730.594 473.734C737.808 477.471 749.029 483.19 758.668 489.39C763.486 492.489 767.953 495.736 771.343 498.945C774.686 502.111 777.18 505.422 777.697 508.67C777.806 509.35 777.342 509.99 776.662 510.098C775.982 510.206 775.342 509.743 775.233 509.063C774.854 506.679 772.901 503.857 769.627 500.757C766.4 497.702 762.079 494.551 757.318 491.488C747.798 485.365 736.693 479.703 729.446 475.949C716.077 469.023 706.645 457.602 699.659 446.82C696.163 441.425 693.263 436.161 690.79 431.682C688.295 427.162 686.28 423.527 684.511 421.244C675.006 408.982 660.86 406.461 648.248 407.093C641.955 407.408 636.105 408.508 631.508 409.537C629.201 410.053 627.24 410.544 625.656 410.918C624.873 411.103 624.177 411.259 623.596 411.37C623.035 411.478 622.502 411.559 622.074 411.559C622.026 411.559 621.848 411.579 621.492 411.691C621.156 411.797 620.733 411.962 620.221 412.188C619.199 412.64 617.903 413.302 616.384 414.134C613.351 415.795 609.52 418.082 605.388 420.578C597.16 425.548 587.726 431.357 581.303 434.506C573.168 438.494 563.229 441.847 553.671 445.246C544.056 448.665 534.831 452.127 527.912 456.351C522.588 459.601 512.981 462.556 501.619 475.658C499.198 478.45 495.219 481.55 490.48 484.711C485.719 487.887 480.108 491.179 474.355 494.344C462.85 500.675 450.714 506.536 443.562 509.989C442.942 510.289 442.196 510.029 441.897 509.409C441.597 508.788 441.857 508.043 442.477 507.743C449.633 504.287 461.713 498.454 473.153 492.159C478.873 489.012 484.416 485.758 489.095 482.636C493.796 479.5 497.542 476.551 499.734 474.024C511.434 460.532 521.686 457.229 526.612 454.222C533.786 449.842 543.255 446.302 552.835 442.896C562.473 439.469 572.233 436.174 580.205 432.266C586.501 429.18 595.805 423.451 604.097 418.443C608.225 415.949 612.099 413.637 615.186 411.946C616.728 411.102 618.096 410.4 619.214 409.906C619.772 409.66 620.287 409.456 620.742 409.313C621.176 409.176 621.642 409.064 622.074 409.064C622.248 409.064 622.582 409.025 623.128 408.92C623.653 408.82 624.305 408.674 625.083 408.49C626.622 408.127 628.641 407.622 630.963 407.102C635.624 406.059 641.629 404.927 648.124 404.601ZM622.074 468.51C623.21 468.51 625.589 468.935 628.464 469.665C631.389 470.407 634.961 471.501 638.538 472.91C642.108 474.316 645.724 476.051 648.712 478.088C651.674 480.108 654.165 482.522 655.268 485.337C656.917 489.548 660.861 493.912 665.203 497.929C667.354 499.919 669.563 501.789 671.575 503.482C673.572 505.162 675.403 506.691 676.745 507.961C677.245 508.434 677.267 509.224 676.793 509.724C676.32 510.224 675.53 510.245 675.029 509.772C673.755 508.565 671.995 507.096 669.969 505.391C667.957 503.698 665.708 501.795 663.509 499.76C659.149 495.727 654.818 491.031 652.944 486.247C652.112 484.123 650.112 482.062 647.306 480.149C644.526 478.254 641.096 476.598 637.623 475.231C634.157 473.865 630.686 472.802 627.85 472.082C624.963 471.349 622.861 471.005 622.074 471.005C622.012 471.005 621.808 471.029 621.404 471.143C621.023 471.25 620.541 471.414 619.957 471.635C618.792 472.076 617.294 472.716 615.524 473.505C613.756 474.293 611.737 475.22 609.532 476.231C607.329 477.241 604.943 478.334 602.452 479.448C592.533 483.887 580.775 488.751 571.982 490.153C560.411 491.997 550.652 495.286 543.185 498.92C535.683 502.57 530.597 506.519 528.258 509.617C527.843 510.167 527.06 510.277 526.51 509.862C525.961 509.447 525.852 508.665 526.267 508.115C528.946 504.565 534.433 500.404 542.094 496.676C549.789 492.931 559.784 489.571 571.589 487.689C580.007 486.347 591.471 481.629 601.433 477.171C603.912 476.062 606.289 474.974 608.492 473.964C610.693 472.955 612.725 472.021 614.508 471.226C616.287 470.433 617.839 469.769 619.075 469.302C619.692 469.068 620.249 468.876 620.727 468.741C621.181 468.614 621.656 468.51 622.074 468.51ZM622.04 426.256C628.652 425.011 639.27 423.6 649.396 423.954C654.458 424.131 659.449 424.75 663.773 426.078C668.088 427.404 671.848 429.47 674.308 432.618C678.106 437.479 683.361 445.609 687.991 452.985C692.656 460.416 696.665 467.043 698.053 469.047C698.415 469.569 699.124 470.337 700.192 471.351C701.243 472.347 702.582 473.527 704.152 474.863C707.295 477.537 711.302 480.786 715.678 484.389C724.4 491.569 734.554 500.127 741.828 508.021C742.294 508.528 742.263 509.317 741.756 509.784C741.249 510.251 740.46 510.218 739.993 509.712C732.853 501.962 722.828 493.507 714.092 486.315C709.74 482.731 705.699 479.454 702.536 476.763C700.953 475.416 699.574 474.203 698.476 473.161C697.394 472.135 696.522 471.217 696.003 470.468C694.573 468.404 690.483 461.646 685.878 454.311C681.237 446.918 676.048 438.897 672.342 434.154C670.314 431.559 667.089 429.707 663.04 428.463C659 427.222 654.247 426.619 649.309 426.447C639.432 426.102 629.011 427.482 622.502 428.708C622.474 428.713 622.449 428.721 622.413 428.738L581.246 447.83L581.211 447.843C571.326 451.737 550.564 460.056 544.617 461.95C541.857 462.83 537.637 465.278 533.431 468.077C529.262 470.852 525.246 473.876 522.935 475.8C513.362 483.769 500.327 492.314 489.719 498.849C484.409 502.121 479.693 504.897 476.306 506.855C474.612 507.834 473.249 508.609 472.31 509.139C471.84 509.404 471.476 509.608 471.229 509.747C471.105 509.815 471.011 509.868 470.948 509.903C470.916 509.921 470.892 509.935 470.876 509.944C470.867 509.948 470.861 509.951 470.857 509.954C470.855 509.955 470.852 509.957 470.852 509.957L470.85 509.958L470.246 508.866C469.666 507.818 469.643 507.777 469.642 507.775L469.644 507.774C469.644 507.774 469.646 507.773 469.648 507.772C469.652 507.77 469.658 507.767 469.666 507.763C469.681 507.754 469.704 507.741 469.735 507.724C469.797 507.689 469.89 507.638 470.012 507.569C470.256 507.433 470.617 507.23 471.083 506.967C472.016 506.44 473.372 505.669 475.058 504.695C478.43 502.745 483.124 499.981 488.411 496.725C498.997 490.203 511.908 481.734 521.339 473.883C523.727 471.895 527.815 468.819 532.049 466.001C536.245 463.208 540.728 460.571 543.861 459.573C549.696 457.715 570.282 449.466 580.267 445.533L621.363 426.474C621.575 426.376 621.799 426.302 622.04 426.256Z" fill="black"/>
<path d="M951.778 631.11C951.317 631.11 950.855 630.995 950.394 630.764C949.932 630.61 949.586 630.341 949.355 629.957L923.399 571.237H923.053L923.283 617.036C923.36 618.497 923.476 619.92 923.63 621.304C923.86 622.612 924.476 623.727 925.475 624.65C926.475 625.496 928.167 625.919 930.551 625.919C931.397 625.919 932.089 625.996 932.628 626.15C933.166 626.303 933.474 627.034 933.551 628.341C933.551 628.957 933.358 629.534 932.974 630.072C932.666 630.61 932.166 630.879 931.474 630.879C929.859 630.803 928.552 630.726 927.552 630.649C926.552 630.649 925.591 630.61 924.668 630.533C923.745 630.533 922.514 630.533 920.976 630.533C918.669 630.533 916.785 630.533 915.323 630.533C913.939 630.61 912.016 630.726 909.555 630.879C908.786 630.879 908.248 630.61 907.94 630.072C907.633 629.534 907.479 628.957 907.479 628.341C907.556 627.034 907.863 626.303 908.402 626.15C908.94 625.996 909.594 625.919 910.363 625.919C912.824 625.919 914.516 625.496 915.439 624.65C916.439 623.727 917.054 622.612 917.285 621.304C917.515 619.92 917.631 618.497 917.631 617.036L917.861 571.237C917.861 568.776 917.592 566.969 917.054 565.815C916.516 564.584 915.67 563.738 914.516 563.277C913.362 562.739 911.901 562.316 910.132 562.008C909.055 561.777 908.286 561.585 907.825 561.431C907.44 561.277 907.248 560.585 907.248 559.355C907.248 558.047 907.71 557.355 908.632 557.278C909.555 557.124 910.632 557.047 911.863 557.047C915.631 557.047 918.938 557.355 921.784 557.97C924.706 558.586 927.244 559.778 929.398 561.547C931.551 563.238 933.32 565.815 934.704 569.276L954.547 613.806H954.893L977.619 557.74H984.195C986.502 557.74 988.733 557.701 990.886 557.624C993.116 557.547 995.462 557.47 997.923 557.393C998.692 557.393 999.231 557.663 999.538 558.201C999.846 558.739 1000 559.316 1000 559.931C999.923 561.239 999.615 561.97 999.077 562.123C998.538 562.277 997.885 562.354 997.116 562.354C994.731 562.354 993.001 562.815 991.924 563.738C990.924 564.584 990.309 565.7 990.078 567.084C989.848 568.391 989.694 569.776 989.617 571.237V617.036C989.694 618.497 989.848 619.92 990.078 621.304C990.309 622.612 990.924 623.727 991.924 624.65C993.001 625.496 994.731 625.919 997.116 625.919C997.885 625.919 998.538 625.996 999.077 626.15C999.615 626.303 999.923 627.034 1000 628.341C1000 628.957 999.846 629.534 999.538 630.072C999.231 630.61 998.692 630.879 997.923 630.879C995.462 630.726 993.116 630.61 990.886 630.533C988.656 630.533 986.387 630.533 984.08 630.533C979.619 630.533 974.889 630.649 969.89 630.879C969.121 630.879 968.583 630.61 968.275 630.072C967.967 629.534 967.813 628.957 967.813 628.341C967.89 627.034 968.198 626.303 968.736 626.15C969.275 625.996 969.928 625.919 970.698 625.919C973.159 625.919 974.889 625.496 975.889 624.65C976.889 623.727 977.504 622.612 977.735 621.304C978.042 619.92 978.196 618.497 978.196 617.036V571.237H977.85L954.085 629.957C953.931 630.341 953.624 630.61 953.162 630.764C952.701 630.995 952.239 631.11 951.778 631.11Z" fill="black"/>
<path d="M863.267 632.84C857.115 632.84 851.962 631.764 847.809 629.61C843.656 627.457 840.541 624.688 838.464 621.304C836.388 617.92 835.349 614.344 835.349 610.575V571.237C835.349 569.776 835.196 568.391 834.888 567.084C834.657 565.699 834.042 564.584 833.042 563.738C832.042 562.815 830.312 562.354 827.851 562.354C827.082 562.354 826.428 562.277 825.89 562.123C825.351 561.969 825.044 561.239 824.967 559.931C824.967 559.316 825.121 558.739 825.428 558.201C825.736 557.662 826.274 557.393 827.043 557.393C829.504 557.47 831.812 557.547 833.965 557.624C836.119 557.701 838.349 557.739 840.656 557.739C845.348 557.739 850.154 557.624 855.076 557.393C855.846 557.393 856.384 557.662 856.692 558.201C856.999 558.739 857.153 559.316 857.153 559.931C857.076 561.085 856.845 561.777 856.461 562.008C856.076 562.239 855.538 562.354 854.846 562.354C852.231 562.354 850.347 562.777 849.193 563.623C848.116 564.392 847.463 565.469 847.232 566.853C847.001 568.16 846.847 569.622 846.77 571.237V607.23C846.77 609.23 846.963 611.345 847.347 613.575C847.809 615.728 848.655 617.766 849.885 619.689C851.116 621.535 852.923 623.073 855.307 624.304C857.768 625.457 861.037 626.034 865.113 626.034C870.343 626.034 874.342 625.188 877.111 623.496C879.956 621.727 881.917 619.535 882.994 616.92C884.071 614.306 884.609 611.614 884.609 608.845V578.505C884.609 573.429 884.417 569.776 884.032 567.545C883.648 565.238 882.802 563.815 881.494 563.277C880.264 562.662 878.341 562.354 875.726 562.354C874.957 562.354 874.304 562.277 873.765 562.123C873.227 561.969 872.919 561.239 872.842 559.931C872.842 559.316 872.996 558.739 873.304 558.201C873.611 557.662 874.15 557.393 874.919 557.393C877.38 557.47 879.572 557.547 881.494 557.624C883.417 557.701 885.532 557.739 887.839 557.739C890.147 557.739 892.262 557.701 894.184 557.624C896.107 557.547 898.299 557.47 900.76 557.393C901.529 557.393 902.068 557.662 902.375 558.201C902.683 558.739 902.837 559.316 902.837 559.931C902.76 561.085 902.529 561.777 902.144 562.008C901.76 562.239 901.222 562.354 900.529 562.354C898.453 562.354 896.761 562.469 895.453 562.7C894.223 562.931 893.261 563.546 892.569 564.546C891.954 565.469 891.531 567.007 891.3 569.16C891.147 571.237 891.07 574.121 891.07 577.812V609.999C891.07 614.075 890.185 617.574 888.416 620.497C886.724 623.419 884.455 625.803 881.61 627.649C878.841 629.418 875.842 630.726 872.612 631.572C869.381 632.417 866.267 632.84 863.267 632.84Z" fill="black"/>
<path d="M786.752 630.879C785.983 630.879 785.445 630.61 785.137 630.072C784.83 629.533 784.676 628.957 784.676 628.341C784.753 627.034 785.06 626.303 785.599 626.149C786.137 625.996 786.791 625.919 787.56 625.919C790.021 625.919 791.751 625.496 792.751 624.65C793.751 623.727 794.366 622.612 794.597 621.304C794.905 619.92 795.097 618.497 795.174 617.036V571.237C795.097 569.776 794.905 568.391 794.597 567.084C794.366 565.699 793.751 564.584 792.751 563.738C791.751 562.815 790.021 562.354 787.56 562.354C786.791 562.354 786.137 562.277 785.599 562.123C785.06 561.969 784.753 561.239 784.676 559.931C784.676 559.316 784.83 558.739 785.137 558.201C785.445 557.662 785.983 557.393 786.752 557.393C789.213 557.47 791.521 557.547 793.674 557.624C795.904 557.701 798.173 557.739 800.48 557.739C805.172 557.739 809.979 557.624 814.901 557.393C815.593 557.393 816.093 557.662 816.401 558.201C816.785 558.739 816.977 559.316 816.977 559.931C816.9 561.239 816.593 561.969 816.054 562.123C815.516 562.277 814.824 562.354 813.978 562.354C811.594 562.354 809.863 562.815 808.787 563.738C807.787 564.584 807.172 565.699 806.941 567.084C806.71 568.391 806.556 569.776 806.479 571.237V617.036C806.556 618.497 806.71 619.92 806.941 621.304C807.172 622.612 807.787 623.727 808.787 624.65C809.863 625.496 811.594 625.919 813.978 625.919C814.824 625.919 815.516 625.996 816.054 626.149C816.593 626.303 816.9 627.034 816.977 628.341C816.977 628.957 816.785 629.533 816.401 630.072C816.093 630.61 815.593 630.879 814.901 630.879C809.979 630.649 805.21 630.533 800.596 630.533C798.289 630.533 796.02 630.533 793.789 630.533C791.559 630.61 789.213 630.726 786.752 630.879Z" fill="black"/>
<path d="M709.471 630.879C708.702 630.879 708.164 630.61 707.856 630.072C707.548 629.533 707.395 628.957 707.395 628.341C707.471 627.034 707.779 626.303 708.317 626.149C708.856 625.996 709.51 625.919 710.279 625.919C712.74 625.919 714.47 625.496 715.47 624.65C716.47 623.727 717.085 622.612 717.316 621.304C717.623 619.92 717.777 618.497 717.777 617.036V571.352C717.777 569.891 717.623 568.468 717.316 567.084C717.085 565.699 716.47 564.584 715.47 563.738C714.47 562.815 712.74 562.354 710.279 562.354C709.51 562.354 708.856 562.277 708.317 562.123C707.779 561.969 707.471 561.239 707.395 559.931C707.395 559.316 707.548 558.739 707.856 558.201C708.164 557.662 708.702 557.393 709.471 557.393C711.932 557.47 714.239 557.547 716.393 557.624C718.623 557.701 720.892 557.739 723.199 557.739H743.042C749.271 557.816 754.309 558.778 758.154 560.623C762.076 562.469 764.922 564.815 766.691 567.661C768.46 570.506 769.344 573.467 769.344 576.544C769.344 580.62 767.691 584.465 764.384 588.08C761.154 591.694 756.577 594.271 750.656 595.809C753.578 600.424 756.539 605.077 759.539 609.768C762.538 614.382 765.999 618.728 769.921 622.804C770.998 623.65 772.036 624.342 773.036 624.88C774.113 625.419 775.382 625.765 776.843 625.919C777.458 625.996 778.073 626.111 778.689 626.265C779.304 626.342 779.65 627.034 779.727 628.341C779.727 628.957 779.573 629.533 779.265 630.072C778.958 630.61 778.42 630.879 777.65 630.879C776.035 630.802 774.728 630.726 773.728 630.649C772.805 630.649 771.882 630.61 770.959 630.533C770.037 630.533 768.806 630.533 767.268 630.533C764.115 629.918 761.423 628.803 759.192 627.188C757.039 625.573 754.924 623.342 752.847 620.497C750.694 617.574 748.694 614.613 746.849 611.614C745.003 608.614 743.195 605.692 741.427 602.846C740.427 601.231 739.388 600.077 738.312 599.385C737.312 598.616 735.389 598.232 732.544 598.232H729.198V617.036C729.275 618.497 729.429 619.92 729.66 621.304C729.89 622.612 730.506 623.727 731.505 624.65C732.582 625.496 734.313 625.919 736.697 625.919C737.466 625.919 738.119 625.996 738.658 626.149C739.196 626.303 739.504 627.034 739.581 628.341C739.581 628.957 739.427 629.533 739.119 630.072C738.812 630.61 738.273 630.879 737.504 630.879C732.582 630.649 727.775 630.533 723.084 630.533C720.777 630.533 718.546 630.533 716.393 630.533C714.239 630.61 711.932 630.726 709.471 630.879ZM729.198 593.733H739.35C743.272 593.733 746.349 593.194 748.579 592.117C750.886 591.041 752.617 589.656 753.77 587.964C754.924 586.272 755.655 584.504 755.962 582.658C756.347 580.812 756.539 579.12 756.539 577.582C756.539 575.044 755.962 572.583 754.809 570.199C753.732 567.814 751.771 565.853 748.925 564.315C746.156 562.777 742.273 562.008 737.273 562.008C733.966 562.008 731.775 562.662 730.698 563.969C729.698 565.2 729.198 567.737 729.198 571.583V593.733Z" fill="black"/>
<path d="M661.176 632.841C655.561 632.841 650.485 631.802 645.948 629.726C641.41 627.649 637.526 624.842 634.296 621.304C631.066 617.767 628.605 613.767 626.913 609.307C625.221 604.769 624.375 600.039 624.375 595.117C624.375 588.734 625.452 583.081 627.605 578.159C629.835 573.237 632.758 569.084 636.373 565.7C639.987 562.316 643.948 559.778 648.255 558.086C652.639 556.317 656.946 555.432 661.176 555.432C666.944 555.432 672.097 556.471 676.634 558.547C681.249 560.624 685.171 563.431 688.401 566.969C691.631 570.506 694.092 574.544 695.784 579.082C697.476 583.542 698.322 588.195 698.322 593.041C698.322 599.424 697.207 605.077 694.977 609.999C692.747 614.921 689.786 619.074 686.094 622.458C682.402 625.842 678.365 628.418 673.981 630.187C669.674 631.956 665.406 632.841 661.176 632.841ZM661.06 627.765C666.521 627.765 670.982 626.15 674.442 622.92C677.903 619.689 680.441 615.459 682.056 610.23C683.748 604.923 684.594 599.193 684.594 593.041C684.594 587.272 683.71 581.927 681.941 577.005C680.249 572.006 677.673 568.007 674.212 565.007C670.751 561.931 666.367 560.393 661.06 560.393C655.677 560.393 651.254 562.008 647.794 565.238C644.41 568.391 641.91 572.583 640.295 577.813C638.68 582.966 637.872 588.618 637.872 594.771C637.872 600.539 638.68 605.961 640.295 611.037C641.987 616.036 644.563 620.074 648.024 623.15C651.485 626.227 655.831 627.765 661.06 627.765Z" fill="black"/>
<path d="M570.431 630.879C569.662 630.879 569.123 630.61 568.816 630.072C568.508 629.534 568.354 628.957 568.354 628.341C568.431 627.034 568.739 626.303 569.277 626.15C569.815 625.996 570.469 625.919 571.238 625.919C573.699 625.919 575.43 625.496 576.43 624.65C577.429 623.727 578.045 622.612 578.275 621.304C578.583 619.92 578.737 618.497 578.737 617.036V562.008H570.777C568.162 562.085 566.124 562.662 564.663 563.738C563.201 564.738 562.125 566.353 561.432 568.584C560.74 570.737 560.125 573.544 559.587 577.005C559.51 577.697 559.01 578.236 558.087 578.62C557.241 578.928 556.395 579.082 555.549 579.082C555.011 579.082 554.395 578.889 553.703 578.505C553.088 578.12 552.78 577.543 552.78 576.774L553.126 560.508C553.126 559.431 553.434 558.701 554.049 558.316C554.665 557.932 555.395 557.74 556.241 557.74H612.654C613.5 557.74 614.192 557.932 614.73 558.316C615.345 558.701 615.653 559.431 615.653 560.508L616.114 576.774C616.114 577.543 615.768 578.12 615.076 578.505C614.461 578.889 613.846 579.082 613.23 579.082C612.461 579.082 611.654 578.928 610.808 578.62C609.962 578.236 609.462 577.697 609.308 577.005C608.77 573.544 608.116 570.737 607.347 568.584C606.655 566.353 605.578 564.738 604.117 563.738C602.732 562.662 600.694 562.085 598.002 562.008H590.158V617.036C590.235 618.497 590.389 619.92 590.619 621.304C590.85 622.612 591.465 623.727 592.465 624.65C593.542 625.496 595.272 625.919 597.656 625.919C598.425 625.919 599.079 625.996 599.618 626.15C600.156 626.303 600.463 627.034 600.54 628.341C600.54 628.957 600.387 629.534 600.079 630.072C599.771 630.61 599.233 630.879 598.464 630.879C596.003 630.726 593.657 630.61 591.427 630.533C589.273 630.533 587.081 630.533 584.851 630.533C580.237 630.533 575.43 630.649 570.431 630.879Z" fill="black"/>
<path d="M516.034 630.879C515.264 630.879 514.726 630.61 514.418 630.072C514.111 629.533 513.957 628.957 513.957 628.341C514.034 627.034 514.342 626.303 514.88 626.149C515.418 625.996 516.072 625.919 516.841 625.919C519.302 625.919 521.033 625.496 522.032 624.65C523.032 623.727 523.648 622.612 523.878 621.304C524.186 619.92 524.378 618.497 524.455 617.036V571.237C524.378 569.776 524.186 568.391 523.878 567.084C523.648 565.699 523.032 564.584 522.032 563.738C521.033 562.815 519.302 562.354 516.841 562.354C516.072 562.354 515.418 562.277 514.88 562.123C514.342 561.969 514.034 561.239 513.957 559.931C513.957 559.316 514.111 558.739 514.418 558.201C514.726 557.662 515.264 557.393 516.034 557.393C518.495 557.47 520.802 557.547 522.955 557.624C525.186 557.701 527.454 557.739 529.762 557.739C534.453 557.739 539.26 557.624 544.182 557.393C544.874 557.393 545.374 557.662 545.682 558.201C546.066 558.739 546.259 559.316 546.259 559.931C546.182 561.239 545.874 561.969 545.336 562.123C544.797 562.277 544.105 562.354 543.259 562.354C540.875 562.354 539.145 562.815 538.068 563.738C537.068 564.584 536.453 565.699 536.222 567.084C535.991 568.391 535.837 569.776 535.761 571.237V617.036C535.837 618.497 535.991 619.92 536.222 621.304C536.453 622.612 537.068 623.727 538.068 624.65C539.145 625.496 540.875 625.919 543.259 625.919C544.105 625.919 544.797 625.996 545.336 626.149C545.874 626.303 546.182 627.034 546.259 628.341C546.259 628.957 546.066 629.533 545.682 630.072C545.374 630.61 544.874 630.879 544.182 630.879C539.26 630.649 534.492 630.533 529.877 630.533C527.57 630.533 525.301 630.533 523.071 630.533C520.84 630.61 518.495 630.726 516.034 630.879Z" fill="black"/>
<path d="M438.751 630.879C437.982 630.879 437.444 630.61 437.136 630.072C436.829 629.533 436.675 628.957 436.675 628.341C436.752 627.034 437.059 626.303 437.598 626.149C438.136 625.996 438.79 625.919 439.559 625.919C442.02 625.919 443.75 625.496 444.75 624.65C445.75 623.727 446.365 622.612 446.596 621.304C446.904 619.92 447.057 618.497 447.057 617.036V571.352C447.057 569.891 446.904 568.468 446.596 567.084C446.365 565.699 445.75 564.584 444.75 563.738C443.75 562.815 442.02 562.354 439.559 562.354C438.79 562.354 438.136 562.277 437.598 562.123C437.059 561.969 436.752 561.239 436.675 559.931C436.675 559.316 436.829 558.739 437.136 558.201C437.444 557.662 437.982 557.393 438.751 557.393C441.212 557.47 443.52 557.547 445.673 557.624C447.903 557.701 450.172 557.739 452.479 557.739H472.322C478.551 557.816 483.589 558.778 487.434 560.623C491.357 562.469 494.202 564.815 495.971 567.661C497.74 570.506 498.625 573.467 498.625 576.544C498.625 580.62 496.971 584.465 493.664 588.08C490.434 591.694 485.858 594.271 479.936 595.809C482.858 600.424 485.819 605.077 488.819 609.768C491.818 614.382 495.279 618.728 499.201 622.804C500.278 623.65 501.316 624.342 502.316 624.88C503.393 625.419 504.662 625.765 506.123 625.919C506.738 625.996 507.354 626.111 507.969 626.265C508.584 626.342 508.93 627.034 509.007 628.341C509.007 628.957 508.853 629.533 508.546 630.072C508.238 630.61 507.7 630.879 506.931 630.879C505.316 630.802 504.008 630.726 503.008 630.649C502.085 630.649 501.163 630.61 500.24 630.533C499.317 630.533 498.086 630.533 496.548 630.533C493.395 629.918 490.703 628.803 488.473 627.188C486.319 625.573 484.204 623.342 482.128 620.497C479.974 617.574 477.975 614.613 476.129 611.614C474.283 608.614 472.476 605.692 470.707 602.846C469.707 601.231 468.669 600.077 467.592 599.385C466.592 598.616 464.669 598.232 461.824 598.232H458.478V617.036C458.555 618.497 458.709 619.92 458.94 621.304C459.171 622.612 459.786 623.727 460.786 624.65C461.862 625.496 463.593 625.919 465.977 625.919C466.746 625.919 467.4 625.996 467.938 626.149C468.476 626.303 468.784 627.034 468.861 628.341C468.861 628.957 468.707 629.533 468.4 630.072C468.092 630.61 467.554 630.879 466.784 630.879C461.862 630.649 457.056 630.533 452.364 630.533C450.057 630.533 447.827 630.533 445.673 630.533C443.52 630.61 441.212 630.726 438.751 630.879ZM458.478 593.733H468.63C472.553 593.733 475.629 593.194 477.859 592.117C480.167 591.041 481.897 589.656 483.051 587.964C484.204 586.272 484.935 584.504 485.242 582.658C485.627 580.812 485.819 579.12 485.819 577.582C485.819 575.044 485.242 572.583 484.089 570.199C483.012 567.814 481.051 565.853 478.205 564.315C475.437 562.777 471.553 562.008 466.554 562.008C463.247 562.008 461.055 562.662 459.978 563.969C458.978 565.2 458.478 567.737 458.478 571.583V593.733Z" fill="black"/>
<path d="M361.355 630.879C360.586 630.879 360.047 630.61 359.74 630.072C359.432 629.533 359.278 628.957 359.278 628.341C359.355 627.034 359.663 626.303 360.201 626.149C360.74 625.996 361.393 625.919 362.162 625.919C364.623 625.919 366.354 625.496 367.354 624.65C368.354 623.727 368.969 622.612 369.2 621.304C369.507 619.92 369.661 618.497 369.661 617.036V571.352C369.661 569.891 369.507 568.468 369.2 567.084C368.969 565.699 368.354 564.584 367.354 563.738C366.354 562.815 364.623 562.354 362.162 562.354C361.393 562.354 360.74 562.277 360.201 562.123C359.663 561.969 359.355 561.239 359.278 559.931C359.278 559.316 359.432 558.739 359.74 558.201C360.047 557.662 360.586 557.393 361.355 557.393C363.816 557.47 366.123 557.547 368.277 557.624C370.507 557.701 372.776 557.739 375.083 557.739H394.925C401.155 557.816 406.192 558.778 410.038 560.623C413.96 562.469 416.806 564.815 418.575 567.661C420.344 570.506 421.228 573.467 421.228 576.544C421.228 580.62 419.575 584.465 416.267 588.08C413.037 591.694 408.461 594.271 402.539 595.809C405.462 600.424 408.423 605.077 411.422 609.768C414.422 614.382 417.883 618.728 421.805 622.804C422.882 623.65 423.92 624.342 424.92 624.88C425.996 625.419 427.265 625.765 428.727 625.919C429.342 625.996 429.957 626.111 430.572 626.265C431.188 626.342 431.534 627.034 431.611 628.341C431.611 628.957 431.457 629.533 431.149 630.072C430.842 630.61 430.303 630.879 429.534 630.879C427.919 630.802 426.612 630.726 425.612 630.649C424.689 630.649 423.766 630.61 422.843 630.533C421.92 630.533 420.69 630.533 419.152 630.533C415.998 629.918 413.307 628.803 411.076 627.188C408.923 625.573 406.808 623.342 404.731 620.497C402.578 617.574 400.578 614.613 398.732 611.614C396.887 608.614 395.079 605.692 393.31 602.846C392.31 601.231 391.272 600.077 390.196 599.385C389.196 598.616 387.273 598.232 384.427 598.232H381.082V617.036C381.159 618.497 381.313 619.92 381.543 621.304C381.774 622.612 382.389 623.727 383.389 624.65C384.466 625.496 386.196 625.919 388.58 625.919C389.35 625.919 390.003 625.996 390.542 626.149C391.08 626.303 391.388 627.034 391.465 628.341C391.465 628.957 391.311 629.533 391.003 630.072C390.695 630.61 390.157 630.879 389.388 630.879C384.466 630.649 379.659 630.533 374.968 630.533C372.66 630.533 370.43 630.533 368.277 630.533C366.123 630.61 363.816 630.726 361.355 630.879ZM381.082 593.733H391.234C395.156 593.733 398.232 593.194 400.463 592.117C402.77 591.041 404.5 589.656 405.654 587.964C406.808 586.272 407.538 584.504 407.846 582.658C408.231 580.812 408.423 579.12 408.423 577.582C408.423 575.044 407.846 572.583 406.692 570.199C405.616 567.814 403.654 565.853 400.809 564.315C398.04 562.777 394.156 562.008 389.157 562.008C385.85 562.008 383.658 562.662 382.582 563.969C381.582 565.2 381.082 567.737 381.082 571.583V593.733Z" fill="black"/>
<path d="M292.742 630.879C292.05 630.879 291.55 630.61 291.243 630.072C290.935 629.533 290.781 628.957 290.781 628.341C290.858 627.034 291.166 626.303 291.704 626.149C292.243 625.996 292.896 625.919 293.665 625.919C296.126 625.919 297.857 625.496 298.857 624.65C299.856 623.727 300.472 622.612 300.702 621.304C301.01 619.92 301.164 618.497 301.164 617.036V571.237C301.164 569.776 301.01 568.391 300.702 567.084C300.472 565.699 299.856 564.584 298.857 563.738C297.857 562.815 296.126 562.354 293.665 562.354C292.896 562.354 292.243 562.277 291.704 562.123C291.166 561.969 290.858 561.239 290.781 559.931C290.781 559.316 290.935 558.739 291.243 558.201C291.55 557.662 292.05 557.393 292.742 557.393C295.28 557.47 297.626 557.547 299.78 557.624C301.933 557.701 304.163 557.739 306.471 557.739H342.694C343.54 557.739 344.233 557.932 344.771 558.316C345.386 558.701 345.694 559.431 345.694 560.508L346.04 576.659C346.04 577.428 345.655 578.005 344.886 578.389C344.194 578.774 343.54 578.966 342.925 578.966C342.079 578.966 341.31 578.812 340.618 578.505C339.926 578.12 339.503 577.582 339.349 576.89C338.811 573.429 338.157 570.66 337.388 568.583C336.696 566.43 335.619 564.892 334.158 563.969C332.773 562.969 330.735 562.431 328.043 562.354H312.585V591.656H333.465C334.081 591.733 334.504 592.041 334.734 592.579C335.042 593.117 335.196 593.694 335.196 594.309C335.196 594.848 335.042 595.386 334.734 595.924C334.504 596.386 334.081 596.617 333.465 596.617H312.585V618.42C312.662 619.42 312.816 620.535 313.046 621.766C313.277 622.919 313.931 623.919 315.007 624.765C316.161 625.611 318.045 625.996 320.66 625.919H331.274C333.965 625.842 336.003 625.419 337.388 624.65C338.849 623.804 340.003 622.419 340.849 620.497C341.695 618.574 342.618 615.921 343.617 612.537C343.925 611.768 344.425 611.268 345.117 611.037C345.886 610.806 346.694 610.768 347.54 610.922C348.155 610.998 348.77 611.268 349.385 611.729C350.078 612.191 350.385 612.806 350.308 613.575L348.001 628.111C347.77 629.187 347.386 629.88 346.848 630.187C346.386 630.418 345.655 630.533 344.656 630.533H306.586C304.279 630.533 302.01 630.533 299.78 630.533C297.626 630.61 295.28 630.726 292.742 630.879Z" fill="black"/>
<path d="M238.65 630.879C237.881 630.879 237.343 630.61 237.035 630.072C236.728 629.534 236.574 628.957 236.574 628.341C236.651 627.034 236.958 626.303 237.497 626.15C238.035 625.996 238.689 625.919 239.458 625.919C241.919 625.919 243.65 625.496 244.649 624.65C245.649 623.727 246.264 622.612 246.495 621.304C246.803 619.92 246.957 618.497 246.957 617.036V562.008H238.997C236.382 562.085 234.344 562.662 232.882 563.738C231.421 564.738 230.344 566.353 229.652 568.584C228.96 570.737 228.345 573.544 227.806 577.005C227.729 577.697 227.23 578.236 226.307 578.62C225.461 578.928 224.615 579.082 223.769 579.082C223.23 579.082 222.615 578.889 221.923 578.505C221.308 578.12 221 577.543 221 576.774L221.346 560.508C221.346 559.431 221.654 558.701 222.269 558.316C222.884 557.932 223.615 557.74 224.461 557.74H280.873C281.719 557.74 282.411 557.932 282.95 558.316C283.565 558.701 283.873 559.431 283.873 560.508L284.334 576.774C284.334 577.543 283.988 578.12 283.296 578.505C282.681 578.889 282.065 579.082 281.45 579.082C280.681 579.082 279.873 578.928 279.027 578.62C278.181 578.236 277.682 577.697 277.528 577.005C276.989 573.544 276.336 570.737 275.567 568.584C274.874 566.353 273.798 564.738 272.336 563.738C270.952 562.662 268.914 562.085 266.222 562.008H258.377V617.036C258.454 618.497 258.608 619.92 258.839 621.304C259.07 622.612 259.685 623.727 260.685 624.65C261.761 625.496 263.492 625.919 265.876 625.919C266.645 625.919 267.299 625.996 267.837 626.15C268.376 626.303 268.683 627.034 268.76 628.341C268.76 628.957 268.606 629.534 268.299 630.072C267.991 630.61 267.453 630.879 266.684 630.879C264.223 630.726 261.877 630.61 259.646 630.533C257.493 630.533 255.301 630.533 253.071 630.533C248.456 630.533 243.65 630.649 238.65 630.879Z" fill="black"/>
<path d="M645.734 372.452C657.135 370.108 669.044 369.14 679.605 370.913C690.184 372.688 699.543 377.243 705.561 386.047C716.876 402.599 731.31 419.911 745.022 433.843C751.878 440.808 758.534 446.909 764.513 451.641C770.522 456.397 775.74 459.683 779.728 461.129C788.118 464.172 801.871 468.371 814.969 475.522C828.08 482.681 840.794 492.926 847.023 508.239C847.369 509.09 846.96 510.061 846.11 510.407C845.259 510.753 844.289 510.344 843.942 509.493C838.125 495.19 826.168 485.426 813.375 478.441C800.569 471.449 787.185 467.371 778.594 464.257C774.091 462.624 768.535 459.067 762.449 454.25C756.333 449.409 749.573 443.208 742.652 436.176C728.81 422.113 714.248 404.649 702.815 387.923C697.459 380.088 689.046 375.87 679.054 374.193C669.044 372.513 657.58 373.412 646.404 375.71C635.243 378.005 624.464 381.676 615.865 385.456C611.566 387.346 607.832 389.256 604.879 391.022C601.892 392.809 599.814 394.386 598.731 395.587C597.318 397.153 595.188 398.729 592.643 400.287C590.076 401.858 586.992 403.467 583.596 405.078C576.803 408.299 568.663 411.571 560.711 414.598C552.764 417.624 544.943 420.429 538.839 422.69C535.777 423.825 533.151 424.822 531.134 425.649C529.043 426.505 527.799 427.105 527.341 427.436C525.951 428.438 523.407 429.897 520.379 431.616C517.306 433.359 513.641 435.42 509.887 437.672C502.308 442.219 494.645 447.388 490.811 452.095C489.652 453.517 487.743 455.107 485.395 456.778C483.019 458.47 480.088 460.319 476.796 462.252C470.212 466.119 462.107 470.366 453.954 474.407C437.667 482.479 421.036 489.806 415.753 491.712C405.624 495.365 390.985 505.343 384.113 510.222C383.364 510.754 382.325 510.578 381.794 509.829C381.262 509.08 381.438 508.042 382.187 507.51C388.984 502.684 403.993 492.417 414.625 488.583C419.723 486.744 436.215 479.487 452.476 471.427C460.597 467.402 468.623 463.195 475.112 459.384C478.357 457.478 481.199 455.683 483.466 454.069C485.763 452.434 487.368 451.056 488.232 449.995C492.487 444.771 500.652 439.334 508.176 434.82C511.973 432.542 515.679 430.458 518.737 428.723C521.839 426.963 524.188 425.608 525.394 424.738C526.233 424.133 527.872 423.39 529.872 422.57C531.945 421.72 534.617 420.708 537.684 419.571C543.837 417.291 551.594 414.51 559.528 411.49C567.456 408.471 575.498 405.236 582.171 402.072C585.507 400.491 588.476 398.938 590.906 397.45C593.357 395.95 595.167 394.571 596.26 393.358C597.683 391.781 600.108 390 603.171 388.168C606.268 386.315 610.13 384.344 614.527 382.411C623.317 378.546 634.32 374.799 645.734 372.452ZM653.2 386.854C660.048 385.49 666.207 384.797 670.436 385.335C674.865 385.899 679.204 388.537 683.415 392.183C687.65 395.852 691.936 400.703 696.25 405.975C704.958 416.617 713.766 428.931 722.963 437.784C732.225 446.699 743.106 456.361 753.666 464.23C764.284 472.142 774.372 478.082 782.083 479.788C799.114 483.556 807.146 498.872 811.729 508.128C812.137 508.951 811.8 509.949 810.978 510.356C810.154 510.764 809.157 510.427 808.749 509.604C804.105 500.225 796.673 486.423 781.365 483.036C772.906 481.165 762.328 474.833 751.678 466.896C740.969 458.916 729.977 449.152 720.656 440.18C711.27 431.146 702.172 418.465 693.676 408.082C689.388 402.842 685.249 398.172 681.237 394.697C677.201 391.202 673.472 389.075 670.016 388.635C666.36 388.17 660.655 388.761 653.851 390.116C647.1 391.461 639.439 393.521 631.959 395.878C624.48 398.235 617.209 400.88 611.237 403.386C605.207 405.917 600.668 408.24 598.522 409.924C595.999 411.904 591.152 414.388 585.257 417.059C579.304 419.757 572.104 422.722 564.743 425.653C549.964 431.539 534.614 437.257 527.022 440.511C519.697 443.65 511.808 450.369 503.104 457.858C494.503 465.258 485.194 473.325 475.256 478.714C465.485 484.013 452.933 490.372 441.72 496.163C430.447 501.986 420.613 507.192 416.124 510.242C415.364 510.758 414.33 510.56 413.814 509.801C413.298 509.041 413.495 508.007 414.255 507.491C418.95 504.301 429.002 498.988 440.194 493.208C451.446 487.396 463.939 481.068 473.67 475.79C483.234 470.603 492.265 462.796 500.934 455.337C509.501 447.966 517.813 440.838 525.712 437.453C533.344 434.183 548.875 428.393 563.512 422.564C570.859 419.638 578.002 416.695 583.884 414.029C589.825 411.337 594.309 409.003 596.469 407.308C599.007 405.317 603.929 402.846 609.95 400.319C616.029 397.768 623.398 395.088 630.959 392.706C638.519 390.323 646.3 388.228 653.2 386.854Z" fill="black"/>
<path d="M744.359 674.361L758.079 674.345L758.082 677.089L741.368 677.109L741.334 647.672L744.328 647.669L744.359 674.361Z" fill="black"/>
<path d="M695.931 666.684L708.695 666.669L702.316 651.21L695.931 666.684ZM691.577 677.166L688.085 677.17L700.856 647.719L703.767 647.716L716.607 677.137L713.114 677.141L709.862 669.412L694.811 669.429L691.577 677.166Z" fill="black"/>
<path d="M659.695 677.203L656.701 677.207L656.67 650.515L646.817 650.526L646.813 647.782L669.514 647.756L669.518 650.5L659.664 650.511L659.695 677.203Z" fill="black"/>
<path d="M621.498 677.248L618.505 677.251L618.471 647.815L621.464 647.811L621.498 677.248Z" fill="black"/>
<path d="M576.817 660.877L581.64 660.871C582.971 660.87 584.093 660.73 585.007 660.451C585.949 660.173 586.697 659.812 587.251 659.368C587.805 658.896 588.206 658.355 588.455 657.745C588.704 657.107 588.828 656.428 588.827 655.707C588.826 655.014 588.701 654.363 588.45 653.754C588.2 653.116 587.798 652.563 587.243 652.092C586.688 651.621 585.939 651.262 584.996 651.014C584.081 650.737 582.959 650.6 581.628 650.602L576.805 650.607L576.817 660.877ZM573.809 647.867L582.373 647.857C585.367 647.853 587.724 648.502 589.444 649.803C591.191 651.103 592.067 653.07 592.07 655.704C592.073 658.337 591.202 660.32 589.457 661.652C587.74 662.957 585.385 663.611 582.392 663.614L576.82 663.621L576.836 677.3L573.843 677.303L573.809 647.867Z" fill="black"/>
<path d="M528.406 666.878L541.17 666.864L534.791 651.404L528.406 666.878ZM524.053 677.361L520.561 677.365L533.332 647.914L536.242 647.91L549.082 677.332L545.59 677.336L542.338 669.606L527.287 669.624L524.053 677.361Z" fill="black"/>
<path d="M498.724 672.734C498.225 673.482 497.603 674.19 496.855 674.856C496.135 675.522 495.304 676.105 494.362 676.605C493.421 677.077 492.395 677.453 491.287 677.731C490.206 678.01 489.056 678.15 487.837 678.151C485.647 678.154 483.609 677.768 481.724 676.994C479.866 676.22 478.243 675.155 476.855 673.798C475.496 672.414 474.427 670.78 473.648 668.896C472.87 667.012 472.48 664.948 472.477 662.702C472.474 660.457 472.86 658.392 473.634 656.506C474.408 654.62 475.473 652.998 476.83 651.638C478.214 650.25 479.834 649.168 481.69 648.389C483.574 647.611 485.611 647.221 487.801 647.218C489.63 647.216 491.46 647.574 493.29 648.293C495.12 649.011 496.688 650.201 497.992 651.863L495.375 653.82C495.07 653.349 494.654 652.878 494.126 652.408C493.599 651.937 492.989 651.522 492.296 651.163C491.63 650.803 490.909 650.513 490.133 650.292C489.356 650.071 488.58 649.961 487.804 649.962C485.919 649.964 484.229 650.313 482.733 651.007C481.237 651.702 479.963 652.632 478.911 653.797C477.887 654.963 477.098 656.322 476.546 657.875C475.993 659.4 475.718 661.008 475.72 662.699C475.722 664.389 476.001 666.011 476.557 667.562C477.113 669.086 477.905 670.429 478.932 671.592C479.986 672.755 481.262 673.682 482.76 674.374C484.257 675.065 485.949 675.409 487.834 675.407C488.61 675.406 489.372 675.336 490.12 675.197C490.896 675.057 491.644 674.821 492.364 674.487C493.112 674.154 493.805 673.709 494.442 673.154C495.106 672.571 495.715 671.85 496.268 670.99L498.724 672.734Z" fill="black"/>
</svg>
